<?xml version="1.0" encoding="UTF-8" standalone="no"?>
<!DOCTYPE svg PUBLIC "-//W3C//DTD SVG 1.1//EN" "http://www.w3.org/Graphics/SVG/1.1/DTD/svg11.dtd">
<svg width="100%" height="100%" viewBox="0 0 1800 1800" version="1.1" xmlns="http://www.w3.org/2000/svg" xmlns:xlink="http://www.w3.org/1999/xlink" xml:space="preserve" xmlns:serif="http://www.serif.com/" style="fill-rule:evenodd;clip-rule:evenodd;stroke-linejoin:round;stroke-miterlimit:2;">
    <g>
        <path d="M874.754,152.188L874.754,30.089C874.754,16.291 885.956,5.089 899.754,5.089C913.552,5.089 924.754,16.291 924.754,30.089L924.754,152.655C1323.79,169.505 1642.57,498.77 1642.57,901.904C1642.57,1304.96 1323.92,1634.17 924.987,1651.14L924.754,1769.96C924.727,1783.76 913.503,1794.94 899.705,1794.91C885.907,1794.88 874.727,1783.66 874.754,1769.86L874.986,1651.63C469.21,1642.2 142.721,1309.88 142.721,901.904C142.721,488.009 478.752,151.979 892.647,151.979L874.754,152.188ZM196.086,970.905C230.246,1319.15 520.029,1592.84 875.084,1601.61L876.127,1069.95C862.168,1069.89 848.304,1069.75 834.586,1069.53L833.334,1069.51L830.075,1069.46C663.428,1066.63 512.557,1052.64 396.171,1031.42L396.158,1031.42L395.572,1031.31C393.876,1031 392.187,1030.69 390.514,1030.38L390.498,1030.38L389.372,1030.17C385.252,1029.4 381.177,1028.62 377.14,1027.83C375.865,1027.58 374.594,1027.33 373.321,1027.08C320.015,1016.5 274.822,1004.33 239.795,991C236.569,989.773 233.424,988.531 230.362,987.279L230.132,987.185L229.35,986.863C216.9,981.728 205.795,976.384 196.086,970.905ZM1589.21,970.905C1576.86,977.874 1562.26,984.624 1545.5,991C1427.95,1035.74 1195.89,1067.4 926.127,1069.83L925.085,1601.09L925.287,1601.08C935.315,1600.61 945.333,1599.94 955.333,1599.06C974.732,1597.33 994.058,1594.8 1013.25,1591.46C1056.54,1583.93 1099.12,1572.28 1140.22,1556.72C1183.22,1540.43 1224.59,1519.87 1263.55,1495.45C1303.36,1470.51 1340.65,1441.56 1374.69,1409.19C1410.24,1375.4 1442.24,1337.9 1470,1297.48C1497.17,1257.92 1520.27,1215.57 1538.77,1171.29C1554.95,1132.58 1567.61,1092.4 1576.54,1051.41C1582.31,1024.95 1586.5,998.166 1589.18,971.219L1589.21,970.905ZM874.754,783.867C719.158,784.616 575.751,795.12 459.738,812.433C409.982,819.858 365.362,828.468 327.16,838.104C300.843,844.782 277.516,851.952 257.579,859.539C252.608,861.431 247.865,863.339 243.359,865.267C238.618,867.313 234.129,869.385 229.894,871.486C224.719,874.054 219.967,876.63 215.676,879.239C211.501,881.801 207.74,884.408 204.414,887.066C203.954,887.434 203.5,887.796 203.053,888.155C201.503,889.464 200.07,890.786 198.759,892.125C195.506,895.446 192.769,898.316 192.722,901.812L192.721,901.904C192.721,902.858 192.876,903.771 193.165,904.653L193.205,904.773L193.247,904.893C193.295,905.026 193.346,905.159 193.4,905.291C193.601,905.786 193.844,906.272 194.125,906.751C194.232,906.935 194.345,907.117 194.464,907.299L194.489,907.338L194.564,907.451L194.641,907.565L194.706,907.659C194.75,907.722 194.795,907.786 194.84,907.849C196.935,910.775 200.389,913.526 204.3,916.651L204.414,916.743C205.144,917.326 205.894,917.907 206.667,918.486L206.77,918.563L207.074,918.79L207.095,918.805C208.151,919.588 209.246,920.367 210.377,921.141C211.092,921.63 211.822,922.117 212.565,922.602L212.907,922.824L213.251,923.046L213.596,923.268C213.712,923.342 213.828,923.416 213.944,923.49L214.294,923.711L214.646,923.932L215.001,924.153C215.779,924.636 216.572,925.118 217.379,925.599C217.732,925.809 218.088,926.018 218.447,926.228L218.654,926.349L219.031,926.567L219.155,926.639C219.519,926.849 219.886,927.059 220.255,927.268L220.557,927.439L220.943,927.657L221.332,927.874L221.723,928.091L222.115,928.308C222.247,928.38 222.378,928.452 222.51,928.524L222.906,928.741C223.039,928.813 223.171,928.885 223.305,928.957C224.655,929.687 226.04,930.414 227.457,931.138C228.071,931.451 228.691,931.764 229.318,932.076C229.528,932.181 229.739,932.285 229.95,932.39C235.696,935.231 241.959,938.023 248.71,940.777C249.283,941.011 249.859,941.244 250.439,941.478C250.714,941.588 250.989,941.698 251.265,941.809C253.324,942.631 255.43,943.452 257.579,944.27C271.659,949.628 287.432,954.778 304.761,959.696L305.124,959.8C305.411,959.881 305.698,959.962 305.985,960.043L306.848,960.286C308.244,960.678 309.651,961.068 311.068,961.457C311.458,961.564 311.848,961.671 312.222,961.773L312.958,961.974L313.842,962.214C315.61,962.693 317.393,963.169 319.192,963.644C325.099,965.201 331.165,966.733 337.368,968.234C337.971,968.38 338.575,968.526 339.185,968.672L339.566,968.764C339.884,968.84 340.202,968.916 340.52,968.992L341.121,969.135C342.564,969.478 344.015,969.82 345.481,970.162C353.169,971.957 361.081,973.711 369.207,975.425L370.231,975.641L370.66,975.731C371.886,975.988 373.118,976.244 374.35,976.499L375.385,976.712L376.422,976.925L377.393,977.123C377.77,977.2 378.148,977.277 378.522,977.353L379.548,977.561L379.977,977.647C380.536,977.76 381.096,977.873 381.645,977.983C383.748,978.405 385.865,978.824 387.983,979.238C387.983,979.238 388.205,979.281 388.205,979.281C390.429,979.716 392.668,980.147 394.903,980.572L395.479,980.682L395.557,980.697C396.973,980.965 398.394,981.233 399.81,981.497L400.899,981.7L401.989,981.902L403.082,982.104C414.729,984.25 426.743,986.32 439.092,988.307L439.166,988.319C451.932,990.372 465.066,992.34 478.56,994.219C478.56,994.219 479.787,994.39 479.787,994.39L480.731,994.52C482.676,994.789 484.629,995.056 486.582,995.32C514.107,999.042 543.031,1002.39 573.179,1005.34L574.263,1005.44L574.821,1005.5C597.263,1007.68 620.376,1009.63 644.08,1011.34C644.08,1011.34 644.384,1011.36 644.384,1011.36C712.171,1016.26 784.796,1019.2 860.454,1019.85C871.106,1019.94 881.849,1019.99 892.647,1019.99C1168.82,1019.99 1408.69,989.566 1527.72,944.27C1545.55,937.483 1560.44,930.49 1571.92,923.125C1573.64,922.022 1575.28,920.91 1576.85,919.789L1576.98,919.693L1577.29,919.472C1577.74,919.145 1578.19,918.816 1578.63,918.487L1578.83,918.336C1578.93,918.261 1579.03,918.185 1579.13,918.11L1579.38,917.918C1579.68,917.685 1579.98,917.451 1580.28,917.217C1580.48,917.059 1580.68,916.901 1580.88,916.743C1582.56,915.398 1584.16,914.124 1585.61,912.875L1585.69,912.804C1585.78,912.729 1585.86,912.654 1585.95,912.58L1586.2,912.358C1586.79,911.836 1587.35,911.318 1587.88,910.801L1588.04,910.64C1590.8,907.887 1592.57,905.137 1592.57,901.904L1592.57,901.812C1592.53,898.316 1589.79,895.446 1586.54,892.125C1585.22,890.786 1583.79,889.464 1582.24,888.155C1581.79,887.796 1581.34,887.434 1580.88,887.066C1577.55,884.408 1573.79,881.801 1569.62,879.239C1565.33,876.63 1560.58,874.054 1555.4,871.486C1551.16,869.385 1546.68,867.313 1541.93,865.267C1537.43,863.339 1532.69,861.431 1527.72,859.539C1507.78,851.952 1484.45,844.782 1458.13,838.104C1419.93,828.468 1375.31,819.858 1325.56,812.433C1240.11,799.682 1139.8,790.627 1030.7,786.438C1030.34,786.424 1029.98,786.402 1029.62,786.373C995.464,785.083 960.447,784.268 924.754,783.961L924.754,901.904C924.754,915.702 913.552,926.904 899.754,926.904C885.956,926.904 874.754,915.702 874.754,901.904L874.754,783.867ZM924.754,202.704L924.754,733.962C961.091,734.277 996.747,735.121 1031.53,736.456C1031.89,736.455 1032.26,736.461 1032.62,736.475C1143.74,740.742 1245.91,749.994 1332.94,762.98C1367.63,768.158 1399.97,773.985 1429.6,780.352C1475.29,790.054 1514.4,800.974 1545.5,812.809C1559.67,818.2 1572.3,823.859 1583.32,829.689C1585.34,830.74 1587.3,831.796 1589.2,832.857C1555.51,489.398 1273.11,218.441 924.754,202.704ZM874.754,202.203C519.875,211.135 230.268,484.731 196.091,832.857C197.996,831.795 199.959,830.738 201.973,829.689C212.997,823.859 225.627,818.2 239.795,812.809C270.893,800.974 310.005,790.054 355.691,780.352C385.322,773.985 417.663,768.158 452.358,762.98C570.424,745.362 716.381,734.621 874.754,733.866L874.754,202.203Z" style="fill:white;"/>
    </g>
</svg>
